HIERARCHY
ROOT hip
{
  OFFSET 0.00112043 5.09927 -9.65472
  CHANNELS 6 Xposition Yposition Zposition Zrotation Xrotation Yrotation
  JOINT abdomen
  {
    OFFSET 0 -1.186 -1.5018
    CHANNELS 3 Zrotation Xrotation Yrotation
    JOINT abdomen2
    {
      OFFSET 0 9.964 0.2134
      CHANNELS 3 Zrotation Xrotation Yrotation
      JOINT chest
      {
        OFFSET 0 13.134 -3.2573
        CHANNELS 3 Zrotation Xrotation Yrotation
        JOINT neck
        {
          OFFSET 0 20.686 -1.6905
          CHANNELS 3 Zrotation Xrotation Yrotation
          JOINT head
          {
            OFFSET 0 7.238 -0.1237
            CHANNELS 3 Zrotation Xrotation Yrotation
            End Site
            {
              OFFSET 0 0 0
            }
          }
        }
        JOINT lCollar
        {
          OFFSET 1.7069 20.075 5.0056
          CHANNELS 3 Zrotation Xrotation Yrotation
          JOINT lShldr
          {
            OFFSET 13.6458 -0.047 -4.849
            CHANNELS 3 Zrotation Xrotation Yrotation
            JOINT lForeArm
            {
              OFFSET 28.3255 -0.9759 2.2888
              CHANNELS 3 Zrotation Xrotation Yrotation
              JOINT lHand
              {
                OFFSET 22.1583 -0.53 10.8316
                CHANNELS 3 Zrotation Xrotation Yrotation
                JOINT lThumb1
                {
                  OFFSET 0.786 0.112 2.5817
                  CHANNELS 3 Zrotation Xrotation Yrotation
                  JOINT lThumb2
                  {
                    OFFSET 0.3601 -0.878 4.2331
                    CHANNELS 3 Zrotation Xrotation Yrotation
                    JOINT lThumb2_End
                    {
                      OFFSET 1.8127 -1.216 2.2227
                      CHANNELS 3 Zrotation Xrotation Yrotation
                      End Site
                      {
                        OFFSET 0.0181 -0.0122 0.0222
                      }
                    }
                  }
                }
                JOINT lCarpal1
                {
                  OFFSET 0.9571 1.114 1.7695
                  CHANNELS 3 Zrotation Xrotation Yrotation
                  JOINT lIndex1
                  {
                    OFFSET 4.1246 0.487 4.1451
                    CHANNELS 3 Zrotation Xrotation Yrotation
                    JOINT lIndex2
                    {
                      OFFSET 3.4052 -1.454 2.7682
                      CHANNELS 3 Zrotation Xrotation Yrotation
                      JOINT lIndex2_End
                      {
                        OFFSET 1.4531 -1.795 1.2713
                        CHANNELS 3 Zrotation Xrotation Yrotation
                        End Site
                        {
                          OFFSET 0.0145 -0.0179 0.0127
                        }
                      }
                    }
                  }
                  JOINT lMid1
                  {
                    OFFSET 5.6954 0.21 2.1184
                    CHANNELS 3 Zrotation Xrotation Yrotation
                    JOINT lMid2
                    {
                      OFFSET 3.9766 -1.54 2.3863
                      CHANNELS 3 Zrotation Xrotation Yrotation
                      JOINT lMid2_End
                      {
                        OFFSET 1.4042 -1.926 1.125
                        CHANNELS 3 Zrotation Xrotation Yrotation
                        End Site
                        {
                          OFFSET 0.014 -0.0193 0.0113
                        }
                      }
                    }
                  }
                }
                JOINT lCarpal2
                {
                  OFFSET 2.0956 0.66 -0.3894
                  CHANNELS 3 Zrotation Xrotation Yrotation
                  JOINT lRing1
                  {
                    OFFSET 5.0395 -0.09 2.4971
                    CHANNELS 3 Zrotation Xrotation Yrotation
                    JOINT lRing2
                    {
                      OFFSET 3.7921 -1.552 1.4806
                      CHANNELS 3 Zrotation Xrotation Yrotation
                      JOINT lRing2_End
                      {
                        OFFSET 1.4655 -1.808 0.9609
                        CHANNELS 3 Zrotation Xrotation Yrotation
                        End Site
                        {
                          OFFSET 0.0147 -0.0181 0.0096
                        }
                      }
                    }
                  }
                  JOINT lPinky1
                  {
                    OFFSET 4.9141 -1.269 0.3591
                    CHANNELS 3 Zrotation Xrotation Yrotation
                    JOINT lPinky2
                    {
                      OFFSET 3.1477 -1.685 0.8462
                      CHANNELS 3 Zrotation Xrotation Yrotation
                      JOINT lPinky2_End
                      {
                        OFFSET 0.8055 -1.585 0.7955
                        CHANNELS 3 Zrotation Xrotation Yrotation
                        End Site
                        {
                          OFFSET 0.0081 -0.0158 0.008
                        }
                      }
                    }
                  }
                }
              }
            }
          }
        }
        JOINT rCollar
        {
          OFFSET -1.7069 20.075 5.0056
          CHANNELS 3 Zrotation Xrotation Yrotation
          JOINT rShldr
          {
            OFFSET -13.6458 -0.047 -4.849
            CHANNELS 3 Zrotation Xrotation Yrotation
            JOINT rForeArm
            {
              OFFSET -28.3255 -0.9759 2.2888
              CHANNELS 3 Zrotation Xrotation Yrotation
              JOINT rHand
              {
                OFFSET -22.1583 -0.53 10.8316
                CHANNELS 3 Zrotation Xrotation Yrotation
                JOINT rThumb1
                {
                  OFFSET -0.786 0.112 2.5817
                  CHANNELS 3 Zrotation Xrotation Yrotation
                  JOINT rThumb2
                  {
                    OFFSET -0.3601 -0.878 4.2331
                    CHANNELS 3 Zrotation Xrotation Yrotation
                    JOINT rThumb2_End
                    {
                      OFFSET -1.8127 -1.216 2.2227
                      CHANNELS 3 Zrotation Xrotation Yrotation
                      End Site
                      {
                        OFFSET -0.0181 -0.0122 0.0222
                      }
                    }
                  }
                }
                JOINT rCarpal1
                {
                  OFFSET -0.9571 1.114 1.7695
                  CHANNELS 3 Zrotation Xrotation Yrotation
                  JOINT rIndex1
                  {
                    OFFSET -4.1246 0.487 4.1451
                    CHANNELS 3 Zrotation Xrotation Yrotation
                    JOINT rIndex2
                    {
                      OFFSET -3.4052 -1.454 2.7682
                      CHANNELS 3 Zrotation Xrotation Yrotation
                      JOINT rIndex2_End
                      {
                        OFFSET -1.4531 -1.795 1.2713
                        CHANNELS 3 Zrotation Xrotation Yrotation
                        End Site
                        {
                          OFFSET -0.0145 -0.018 0.0127
                        }
                      }
                    }
                  }
                  JOINT rMid1
                  {
                    OFFSET -5.6954 0.21 2.1184
                    CHANNELS 3 Zrotation Xrotation Yrotation
                    JOINT rMid2
                    {
                      OFFSET -3.9766 -1.54 2.3863
                      CHANNELS 3 Zrotation Xrotation Yrotation
                      JOINT rMid2_End
                      {
                        OFFSET -1.4042 -1.926 1.125
                        CHANNELS 3 Zrotation Xrotation Yrotation
                        End Site
                        {
                          OFFSET -0.014 -0.0193 0.0113
                        }
                      }
                    }
                  }
                }
                JOINT rCarpal2
                {
                  OFFSET -2.0956 0.66 -0.3894
                  CHANNELS 3 Zrotation Xrotation Yrotation
                  JOINT rRing1
                  {
                    OFFSET -5.0395 -0.09 2.4971
                    CHANNELS 3 Zrotation Xrotation Yrotation
                    JOINT rRing2
                    {
                      OFFSET -3.7921 -1.552 1.4806
                      CHANNELS 3 Zrotation Xrotation Yrotation
                      JOINT rRing2_End
                      {
                        OFFSET -1.4655 -1.808 0.9609
                        CHANNELS 3 Zrotation Xrotation Yrotation
                        End Site
                        {
                          OFFSET -0.0147 -0.0181 0.0096
                        }
                      }
                    }
                  }
                  JOINT rPinky1
                  {
                    OFFSET -4.9141 -1.269 0.3592
                    CHANNELS 3 Zrotation Xrotation Yrotation
                    JOINT rPinky2
                    {
                      OFFSET -3.1477 -1.685 0.8462
                      CHANNELS 3 Zrotation Xrotation Yrotation
                      JOINT rPinky2_End
                      {
                        OFFSET -0.8055 -1.585 0.7955
                        CHANNELS 3 Zrotation Xrotation Yrotation
                        End Site
                        {
                          OFFSET -0.0081 -0.0158 0.008
                        }
                      }
                    }
                  }
                }
              }
            }
          }
        }
      }
    }
  }
  JOINT lThigh
  {
    OFFSET 8.367 -8.2066 0.5982
    CHANNELS 3 Zrotation Xrotation Yrotation
    JOINT lShin
    {
      OFFSET 2.1923 -43.463 -0.4932
      CHANNELS 3 Zrotation Xrotation Yrotation
      JOINT lFoot
      {
        OFFSET 0.7333 -45.8593 -2.6451
        CHANNELS 3 Zrotation Xrotation Yrotation
        End Site
        {
          OFFSET 2.6618 -4.2699 12.3931
        }
      }
    }
  }
  JOINT rThigh
  {
    OFFSET -8.367 -8.2066 0.5982
    CHANNELS 3 Zrotation Xrotation Yrotation
    JOINT rShin
    {
      OFFSET -2.1923 -43.463 -0.4931
      CHANNELS 3 Zrotation Xrotation Yrotation
      JOINT rFoot
      {
        OFFSET -0.7333 -45.8593 -2.6451
        CHANNELS 3 Zrotation Xrotation Yrotation
        End Site
        {
          OFFSET -2.6618 -4.2699 12.3931
        }
      }
    }
  }
}
MOTION
Frames:	4
Frame Time:	0.0333333
-0.651392 34.6991 -45.3275 -0.000773985 -29.1355 179.998 0.113285 0.6624 -0.292817 0.229978 1.32421 -0.587003 0.229978 1.32421 -0.587003 5.37363e-006 -22.1494 4.95335e-005 0.330472 0.124144 -3.65074e-008 -23.4479 26.9767 -23.6657 -42.5815 -6.9296 -13.1539 3.7655 -4.60225 -19.782 -7.09305 4.45699 -7.13715 3.70276e-007 -1.10451e-006 -1.19319e-006 3.70276e-007 -1.10451e-006 -1.19319e-006 2.98177e-016 -9.54166e-015 -3.97569e-016 3.97569e-016 -1.59028e-014 -9.93923e-016 3.70276e-007 -1.10451e-006 -1.19319e-006 3.70276e-007 -1.10451e-006 -1.19319e-006 1.09332e-015 -6.36111e-015 -7.95139e-016 3.70276e-007 -1.10451e-006 -1.19319e-006 3.70276e-007 -1.10451e-006 -1.19319e-006 1.09332e-015 -6.36111e-015 -7.95139e-016 3.97569e-016 -1.59028e-014 -9.93923e-016 3.70276e-007 -1.10451e-006 -1.19319e-006 3.70276e-007 -1.10451e-006 -1.19319e-006 1.09332e-015 -6.36111e-015 -7.95139e-016 3.70276e-007 -1.10451e-006 -1.19319e-006 3.70276e-007 -1.10451e-006 -1.19319e-006 1.09332e-015 -6.36111e-015 -7.95139e-016 40.1772 6.15344 -25.8222 54.849 55.644 -15.2958 75.2999 -41.6002 57.7108 54.3751 -29.4753 14.6238 1.02265e-006 -5.70421e-007 -1.23587e-006 1.02265e-006 -5.70421e-007 -1.23587e-006 1.02265e-006 -5.70421e-007 -1.23587e-006 -3.18055e-015 0 -0 1.02265e-006 -5.70421e-007 -1.23587e-006 1.02265e-006 -5.70421e-007 -1.23587e-006 1.02265e-006 -5.70421e-007 -1.23587e-006 1.02265e-006 -5.70421e-007 -1.23587e-006 1.02265e-006 -5.70421e-007 -1.23587e-006 1.02265e-006 -5.70421e-007 -1.23587e-006 -3.18055e-015 0 -0 1.02265e-006 -5.70421e-007 -1.23587e-006 1.02265e-006 -5.70421e-007 -1.23587e-006 1.02265e-006 -5.70421e-007 -1.23587e-006 1.02265e-006 -5.70421e-007 -1.23587e-006 1.02265e-006 -5.70421e-007 -1.23587e-006 1.02265e-006 -5.70421e-007 -1.23587e-006 68.9319 -40.0729 88.5724 121.142 34.6956 -142.664 -42.7195 54.6014 35.9234 -68.9798 -40.0538 -88.6869 -121.18 34.6242 142.685 43.2347 55.0494 -36.3846 
-0.651699 34.7732 -45.0122 -0.000774767 -29.1601 179.998 0.12113 0.827819 -0.292137 0.246519 1.655 -0.586116 0.246519 1.655 -0.586115 -4.4755e-006 -21.8074 -4.114e-005 0.330472 0.124147 -9.82e-007 -22.891 25.9157 -23.9838 -42.8854 -6.79719 -13.2543 3.67792 -4.55237 -20.1758 -7.13157 4.31709 -6.8152 7.0983e-007 5.4566e-007 -9.9838e-007 7.41262e-007 -2.21091e-006 -2.38546e-006 4.96962e-016 -1.90833e-014 -1.2921e-015 -4.96962e-016 3.18055e-015 9.93923e-017 7.0983e-007 5.4566e-007 -9.9838e-007 7.41262e-007 -2.21091e-006 -2.38546e-006 8.94531e-016 0 1.98785e-016 7.0983e-007 5.4566e-007 -9.9838e-007 7.41262e-007 -2.21091e-006 -2.38546e-006 8.94531e-016 0 1.98785e-016 -4.96962e-016 3.18055e-015 9.93923e-017 7.0983e-007 5.4566e-007 -9.9838e-007 7.41262e-007 -2.21091e-006 -2.38546e-006 8.94531e-016 0 1.98785e-016 7.0983e-007 5.4566e-007 -9.9838e-007 7.41262e-007 -2.21091e-006 -2.38546e-006 8.94531e-016 0 1.98785e-016 40.0352 6.25038 -25.0432 54.1547 55.721 -14.5184 75.3 -41.6002 57.7108 52.8343 -30.4171 13.9745 9.06295e-007 6.27512e-007 -7.45028e-007 -1.47999e-006 -2.49207e-007 -3.28402e-006 1.01761e-006 -5.46444e-007 -1.2488e-006 -1.76556e-031 -3.18055e-015 -3.18055e-015 9.06295e-007 6.27512e-007 -7.45028e-007 -1.47999e-006 -2.49207e-007 -3.28402e-006 1.01761e-006 -5.46444e-007 -1.2488e-006 9.06295e-007 6.27512e-007 -7.45028e-007 -1.47999e-006 -2.49207e-007 -3.28402e-006 1.01761e-006 -5.46444e-007 -1.2488e-006 -1.76556e-031 -3.18055e-015 -3.18055e-015 9.06295e-007 6.27512e-007 -7.45028e-007 -1.47999e-006 -2.49207e-007 -3.28402e-006 1.01761e-006 -5.46444e-007 -1.2488e-006 9.06295e-007 6.27512e-007 -7.45028e-007 -1.47999e-006 -2.49207e-007 -3.28402e-006 1.01761e-006 -5.46444e-007 -1.2488e-006 69.2133 -40.6158 88.8658 121.376 34.6167 -142.729 -43.2242 54.6472 36.2738 -69.2567 -40.5969 -88.9746 -121.41 34.5491 142.744 43.7443 55.0951 -36.7359 
-0.651985 34.8394 -44.7282 -0.000775548 -29.1847 179.998 0.128181 0.97713 -0.291486 0.261389 1.95359 -0.585286 0.261389 1.9536 -0.585287 -2.98239e-006 -21.4657 6.38687e-005 0.330472 0.124145 -1.70628e-007 -22.3986 24.9557 -24.2572 -43.1587 -6.67747 -13.3441 3.59936 -4.50691 -20.5303 -7.16563 4.19105 -6.52553 -3.70983e-007 1.10628e-006 1.19231e-006 -2.98177e-016 6.36111e-015 -4.96962e-016 -1.09332e-015 6.36111e-015 -1.98785e-016 -7.95139e-016 -3.18055e-015 2.98177e-016 -3.70983e-007 1.10628e-006 1.19231e-006 -1.68967e-015 -6.36111e-015 -1.09332e-015 9.93923e-017 -6.36111e-015 1.98785e-016 -3.70983e-007 1.10628e-006 1.19231e-006 -1.68967e-015 -6.36111e-015 -1.09332e-015 9.93923e-017 -6.36111e-015 1.98785e-016 -7.95139e-016 -3.18055e-015 2.98177e-016 -3.70983e-007 1.10628e-006 1.19231e-006 -1.68967e-015 -6.36111e-015 -1.09332e-015 9.93923e-017 -6.36111e-015 1.98785e-016 -3.70983e-007 1.10628e-006 1.19231e-006 -1.68967e-015 -6.36111e-015 -1.09332e-015 9.93923e-017 -6.36111e-015 1.98785e-016 39.9061 6.33567 -24.3407 53.527 55.7857 -13.8158 75.3 -41.6002 57.7108 51.4179 -31.2527 13.3559 1.01271e-006 -5.2464e-007 -1.26009e-006 -1.01271e-006 5.2464e-007 1.26009e-006 1.01271e-006 -5.2464e-007 -1.26009e-006 1.59028e-015 3.18055e-015 -7.95139e-016 1.01271e-006 -5.2464e-007 -1.26009e-006 -1.01271e-006 5.2464e-007 1.26009e-006 1.01271e-006 -5.2464e-007 -1.26009e-006 1.01271e-006 -5.2464e-007 -1.26009e-006 -1.01271e-006 5.2464e-007 1.26009e-006 1.01271e-006 -5.2464e-007 -1.26009e-006 1.59028e-015 3.18055e-015 -7.95139e-016 1.01271e-006 -5.2464e-007 -1.26009e-006 -1.01271e-006 5.2464e-007 1.26009e-006 1.01271e-006 -5.2464e-007 -1.26009e-006 1.01271e-006 -5.2464e-007 -1.26009e-006 -1.01271e-006 5.2464e-007 1.26009e-006 1.01271e-006 -5.2464e-007 -1.26009e-006 69.4651 -41.1102 89.1307 121.59 34.5475 -142.782 -43.6807 54.6874 36.5912 -69.508 -41.088 -89.2363 -121.618 34.482 142.793 44.2051 55.135 -37.054 
-0.652275 34.9056 -44.4436 -0.000776331 -29.2093 179.998 0.135177 1.12663 -0.290459 0.276145 2.25251 -0.583745 0.276145 2.25253 -0.583745 4.16261e-006 -21.1234 -6.51093e-006 0.330472 0.124144 6.14597e-008 -21.9142 23.9928 -24.5199 -43.4318 -6.55733 -13.4332 3.52108 -4.46094 -20.8846 -7.19904 4.0648 -6.23593 -1.0138e-014 -1.90833e-014 -7.25564e-015 -1.0635e-014 -1.27222e-014 -6.95746e-015 -3.71385e-007 1.10707e-006 1.19187e-006 1.98785e-016 -6.36111e-015 2.98177e-016 -1.30204e-014 -1.59028e-014 -4.07509e-015 -1.08338e-014 -1.27222e-014 -6.4605e-015 -3.71385e-007 1.10707e-006 1.19187e-006 -1.30204e-014 -1.59028e-014 -4.07509e-015 -1.08338e-014 -1.27222e-014 -6.4605e-015 -3.71385e-007 1.10707e-006 1.19187e-006 1.98785e-016 -6.36111e-015 2.98177e-016 -1.30204e-014 -1.59028e-014 -4.07509e-015 -1.08338e-014 -1.27222e-014 -6.4605e-015 -3.71385e-007 1.10707e-006 1.19187e-006 -1.30204e-014 -1.59028e-014 -4.07509e-015 -1.08338e-014 -1.27222e-014 -6.4605e-015 -3.71385e-007 1.10707e-006 1.19187e-006 39.776 6.41973 -23.638 52.8967 55.8461 -13.1108 75.2999 -41.6002 57.7107 49.9741 -32.0772 12.7056 -1.00749e-006 5.02635e-007 1.27102e-006 -1.00749e-006 5.02635e-007 1.27102e-006 -1.00749e-006 5.02635e-007 1.27102e-006 -0 0 1.59028e-015 -1.00749e-006 5.02635e-007 1.27102e-006 -1.00749e-006 5.02635e-007 1.27102e-006 -1.00749e-006 5.02635e-007 1.27102e-006 -1.00749e-006 5.02635e-007 1.27102e-006 -1.00749e-006 5.02635e-007 1.27102e-006 -1.00749e-006 5.02635e-007 1.27102e-006 -0 0 1.59028e-015 -1.00749e-006 5.02635e-007 1.27102e-006 -1.00749e-006 5.02635e-007 1.27102e-006 -1.00749e-006 5.02635e-007 1.27102e-006 -1.00749e-006 5.02635e-007 1.27102e-006 -1.00749e-006 5.02635e-007 1.27102e-006 -1.00749e-006 5.02635e-007 1.27102e-006 69.7261 -41.6007 89.4033 121.801 34.4765 -142.837 -44.1395 54.7264 36.9105 -69.7664 -41.5772 -89.5045 -121.825 34.414 142.843 44.6681 55.1739 -37.3741 
